<svg height="512pt" viewBox="-23 0 511 512" width="512pt" xmlns="http://www.w3.org/2000/svg"><path d="m409.25 156.257812c4.140625 0 7.5-3.359374 7.5-7.5 0-4.140624-3.359375-7.5-7.5-7.5h-119.253906c-4.140625 0-7.5 3.359376-7.5 7.5 0 4.140626 3.359375 7.5 7.5 7.5zm0 0"/><path d="m199.992188 436.28125c-4.140626 0-7.5 3.359375-7.5 7.5 0 4.144531 3.359374 7.5 7.5 7.5h65.261718c4.140625 0 7.5-3.355469 7.5-7.5 0-4.140625-3.359375-7.5-7.5-7.5zm0 0"/><path d="m48.496094 216.597656v144.597656c0 11.34375 9.230468 20.574219 20.574218 20.574219h327.105469c11.34375 0 20.574219-9.230469 20.574219-20.574219v-144.597656c0-11.34375-9.230469-20.574218-20.574219-20.574218h-327.105469c-11.34375 0-20.574218 9.230468-20.574218 20.574218zm353.253906 0v144.597656c0 3.074219-2.503906 5.574219-5.574219 5.574219h-327.105469c-3.074218 0-5.574218-2.5-5.574218-5.574219v-144.597656c0-3.074218 2.5-5.574218 5.574218-5.574218h327.105469c3.070313 0 5.574219 2.5 5.574219 5.574218zm0 0"/><path d="m434.605469 0h-403.964844c-16.621094 0-30.140625 13.519531-30.140625 30.140625v103.617187c0 4.140626 3.359375 7.5 7.5 7.5s7.5-3.359374 7.5-7.5v-27.832031h434.246094v301.242188h-62.746094c-4.140625 0-7.5 3.359375-7.5 7.5 0 4.144531 3.359375 7.5 7.5 7.5h62.746094v28.085937c0 8.351563-6.792969 15.140625-15.140625 15.140625h-403.964844c-8.347656 0-15.140625-6.789062-15.140625-15.140625v-28.085937h341.5c4.140625 0 7.5-3.355469 7.5-7.5 0-4.140625-3.359375-7.5-7.5-7.5h-341.5v-243.410157c0-4.140624-3.359375-7.5-7.5-7.5s-7.5 3.359376-7.5 7.5v286.5c0 16.617188 13.519531 30.140626 30.140625 30.140626h4.085937v15.570312c0 8.839844 7.191407 16.03125 16.03125 16.03125h32.296876c8.835937 0 16.027343-7.191406 16.027343-16.03125v-15.570312h267.082031v15.570312c0 8.839844 7.191407 16.03125 16.027344 16.03125h32.296875c8.839844 0 16.03125-7.191406 16.03125-16.03125v-15.570312h4.085938c16.621093 0 30.140625-13.523438 30.140625-30.140626 0-19.648437 0-400.484374 0-420.117187 0-16.621094-13.523438-30.140625-30.140625-30.140625zm-350.523438 495.96875c0 .570312-.460937 1.03125-1.027343 1.03125h-32.296876c-.566406 0-1.03125-.460938-1.03125-1.03125v-15.570312h34.359376v15.570312zm331.4375 0c0 .570312-.460937 1.03125-1.03125 1.03125h-32.296875c-.566406 0-1.027344-.460938-1.027344-1.03125v-15.570312h34.355469zm-291.917969-419.046875v14.003906h-42.304687v-14.003906zm257.347657 0v14.003906h-42.300781v-14.003906zm15 14.003906v-14.003906h5.355469c6.449218 0 11.699218-5.25 11.699218-11.699219v-10.160156c0-4.140625-3.359375-7.5-7.5-7.5-4.144531 0-7.5 3.359375-7.5 7.5v6.859375h-73.410156v-6.859375c0-4.140625-3.355469-7.5-7.5-7.5-4.140625 0-7.5 3.359375-7.5 7.5v10.160156c0 6.449219 5.25 11.699219 11.699219 11.699219h2.355469v14.003906h-185.046876v-14.003906h5.351563c6.449219 0 11.699219-5.25 11.699219-11.699219v-10.160156c0-4.140625-3.359375-7.5-7.5-7.5-4.144532 0-7.5 3.359375-7.5 7.5v6.859375h-73.40625v-6.859375c0-4.140625-3.359375-7.5-7.5-7.5-4.144532 0-7.5 3.359375-7.5 7.5v10.160156c0 6.449219 5.246094 11.699219 11.695312 11.699219h2.355469v14.003906h-50.796875v-60.785156c0-8.347656 6.792969-15.140625 15.140625-15.140625h403.964844c8.347656 0 15.140625 6.792969 15.140625 15.140625v60.785156zm0 0"/><path d="m72.722656 123.140625c-14.125 0-25.617187 11.492187-25.617187 25.617187s11.492187 25.617188 25.617187 25.617188c14.128906 0 25.621094-11.492188 25.621094-25.617188s-11.492188-25.617187-25.621094-25.617187zm0 36.234375c-5.855468 0-10.617187-4.761719-10.617187-10.617188 0-5.855468 4.761719-10.617187 10.617187-10.617187 5.855469 0 10.621094 4.761719 10.621094 10.617187 0 5.855469-4.765625 10.617188-10.621094 10.617188zm0 0"/><path d="m169.699219 148.757812c0-14.125-11.492188-25.617187-25.621094-25.617187-14.125 0-25.617187 11.492187-25.617187 25.617187s11.492187 25.617188 25.617187 25.617188c14.128906 0 25.621094-11.492188 25.621094-25.617188zm-36.238281 0c0-5.855468 4.765624-10.617187 10.617187-10.617187 5.855469 0 10.621094 4.761719 10.621094 10.617187 0 5.855469-4.765625 10.617188-10.621094 10.617188-5.851563 0-10.617187-4.761719-10.617187-10.617188zm0 0"/><path d="m241.054688 148.757812c0-14.125-11.492188-25.617187-25.621094-25.617187-14.125 0-25.617188 11.492187-25.617188 25.617187s11.492188 25.617188 25.617188 25.617188c14.128906 0 25.621094-11.492188 25.621094-25.617188zm-36.238282 0c0-5.855468 4.761719-10.617187 10.617188-10.617187 5.855468 0 10.621094 4.761719 10.621094 10.617187 0 5.855469-4.765626 10.617188-10.621094 10.617188-5.855469 0-10.617188-4.761719-10.617188-10.617188zm0 0"/></svg>