<?xml version="1.0" encoding="iso-8859-1"?>
<!-- Generator: Adobe Illustrator 19.0.0, SVG Export Plug-In . SVG Version: 6.00 Build 0)  -->
<svg version="1.1" id="Layer_1" xmlns="http://www.w3.org/2000/svg" xmlns:xlink="http://www.w3.org/1999/xlink" x="0px" y="0px"
	 viewBox="0 0 512.001 512.001" style="enable-background:new 0 0 512.001 512.001;" xml:space="preserve">
<path style="fill:#399928;" d="M497.156,80.773H101.834c-8.199,0-14.843,6.647-14.843,14.845v32.467h365.637
	c8.198,0,14.843,6.647,14.843,14.845v195.741h29.686c8.197,0,14.844-6.645,14.844-14.843V95.618
	C512,87.42,505.353,80.773,497.156,80.773z"/>
<g>
	<path style="fill:#338921;" d="M127.694,80.773h-25.86c-8.199,0-14.843,6.647-14.843,14.845v32.467h25.86V95.618
		C112.85,87.42,119.495,80.773,127.694,80.773z"/>
	<path style="fill:#338921;" d="M478.487,128.085h-25.86c8.198,0,14.843,6.647,14.843,14.845v195.741h25.86V142.93
		C493.33,134.732,486.685,128.085,478.487,128.085z"/>
</g>
<path style="fill:#3DB751;" d="M453.661,127.051H58.339c-8.198,0-14.844,6.647-14.844,14.845v32.467h365.637
	c8.199,0,14.844,6.647,14.844,14.845v195.741h29.686c8.199,0,14.843-6.645,14.843-14.843v-228.21
	C468.504,133.698,461.86,127.051,453.661,127.051z"/>
<g>
	<path style="fill:#2D9B37;" d="M84.199,127.051h-25.86c-8.198,0-14.844,6.647-14.844,14.845v32.467h25.86v-32.467
		C69.355,133.698,76.001,127.051,84.199,127.051z"/>
	<path style="fill:#2D9B37;" d="M434.991,174.363h-25.86c8.199,0,14.844,6.647,14.844,14.845v195.741h25.86V189.208
		C449.836,181.01,443.19,174.363,434.991,174.363z"/>
</g>
<path style="fill:#9DCE32;" d="M425.01,416.384c0,8.199-6.646,14.843-14.844,14.843H14.844C6.646,431.227,0,424.582,0,416.384
	v-228.21c0-8.199,6.646-14.845,14.844-14.845h395.321c8.198,0,14.844,6.647,14.844,14.845v228.21H425.01z"/>
<path style="fill:#88BC24;" d="M25.86,416.384v-228.21c0-8.199,6.646-14.845,14.844-14.845h-25.86
	C6.646,173.328,0,179.975,0,188.174v228.21c0,8.199,6.646,14.843,14.844,14.843h25.86C32.506,431.227,25.86,424.582,25.86,416.384z"
	/>
<circle style="fill:#CAD13F;" cx="212.5" cy="302.78" r="80.15"/>
<path style="fill:#D8E553;" d="M212.505,222.628c-2.343,0-4.656,0.122-6.947,0.319c-23.053,14.076-38.443,39.466-38.443,68.453
	c0,46.633,39.817,83.897,87.098,79.833c23.053-14.076,38.443-39.466,38.443-68.455C292.655,258.513,256.771,222.628,212.505,222.628
	z"/>
<g>
	<path style="fill:#F5F5F5;" d="M235.283,329.091c-7.601,8.146-15.167-0.92-30.679-1.294c2.202-4.747,3.389-9.608,3.551-14.434
		h8.725c4.285,0,7.758-3.473,7.758-7.758s-3.473-7.758-7.758-7.758h-11.978c-6.783-14.395-2.195-24.7,9.265-24.7
		c7.876,0,12.385,2.882,13.403,8.566c0.755,4.217,4.79,7.019,9.004,6.269c4.217-0.756,7.024-4.787,6.269-9.005
		c-1.848-10.32-10.352-21.347-28.676-21.347c-22.205,0-32.646,20.244-26.09,40.217h-4.023c-4.285,0-7.758,3.473-7.758,7.758
		s3.473,7.758,7.758,7.758h8.551c-0.55,8.65-7.081,15.93-10.575,19.23c-6.066,5.729,0.1,15.816,8.024,12.914
		c0.12-0.044,12.114-4.357,22.029-0.879c13.271,4.656,24.875,5.411,34.545-4.951c2.923-3.133,2.754-8.042-0.379-10.965
		C243.116,325.79,238.207,325.96,235.283,329.091z"/>
	<path style="fill:#F5F5F5;" d="M385.185,202.958h-72.408c-4.285,0-7.758,3.473-7.758,7.758c0,4.285,3.473,7.758,7.758,7.758h72.408
		c4.285,0,7.758-3.473,7.758-7.758S389.47,202.958,385.185,202.958z"/>
	<path style="fill:#F5F5F5;" d="M112.233,387.083H39.825c-4.285,0-7.758,3.473-7.758,7.758s3.473,7.758,7.758,7.758h72.408
		c4.285,0,7.758-3.473,7.758-7.758C119.991,390.556,116.518,387.083,112.233,387.083z"/>
</g>
<g>
</g>
<g>
</g>
<g>
</g>
<g>
</g>
<g>
</g>
<g>
</g>
<g>
</g>
<g>
</g>
<g>
</g>
<g>
</g>
<g>
</g>
<g>
</g>
<g>
</g>
<g>
</g>
<g>
</g>
</svg>
