<svg width="30" height="30" viewBox="0 0 30 30" fill="none" xmlns="http://www.w3.org/2000/svg">
<g clip-path="url(#clip0)">
<path d="M0.585786 0.585786C1.36684 -0.195262 2.63317 -0.195262 3.41422 0.585786L28.87 26.0416C29.6511 26.8227 29.6511 28.089 28.87 28.8701C28.089 29.6511 26.8227 29.6511 26.0416 28.8701L0.585786 3.41421C-0.195262 2.63317 -0.195262 1.36683 0.585786 0.585786Z" fill="#333333"/>
<path d="M28.8701 0.585786C29.6511 1.36684 29.6511 2.63317 28.8701 3.41422L3.41421 28.8701C2.63317 29.6511 1.36684 29.6511 0.585786 28.8701C-0.195262 28.089 -0.195262 26.8227 0.585786 26.0416L26.0416 0.585787C26.8227 -0.195262 28.089 -0.195262 28.8701 0.585786Z" fill="#333333"/>
</g>
<defs>
<clipPath id="clip0">
<rect width="30" height="30" fill="white"/>
</clipPath>
</defs>
</svg>
