<svg enable-background="new 0 0 110 110" height="512" viewBox="0 0 110 110" width="512" xmlns="http://www.w3.org/2000/svg"><path d="m68.9120636 13.2648554c-.2519531-.0502815-.5196152-.0155764-.7482758.101655-12.3364143 6.3250294-11.1757851 21.5645618-11.1757851 22.1865177l5.9151993-.3910446c-.1013145-12.0925941 3.9592934-17.6516571 6.5285454-19.9542027.6937561-.6216812.3939133-1.7603836-.5196838-1.9429254z" fill="#41a38e"/><path d="m86.2896042 63.6874504c0 9.0200233-3.6699829 17.1098671-9.4500122 22.5598183-2.6699829 2.5200195-5.789978 4.4702148-9.2000122 5.7001953-1.6300049.5898438-3.0199585 1.6699219-4.2299805 2.9199219-1.1400146 1.1799316-2.6199951 1.8901367-4.2399902 1.8901367s-3.0999756-.7202148-4.2299805-1.8901367c-1.210022-1.25-2.6000366-2.3300781-4.2300415-2.9199219-10.8299561-3.9001465-18.6599731-15.0800781-18.6599731-28.2600136 0-5.9699707 1.6099854-11.5400391 4.3900146-16.1999512 4.8199463-8.1601562 13.2099609-13.5500488 22.7299805-13.5500488 14.9799804 0 27.1199951 13.3200684 27.1199951 29.75z" fill="#feda6f"/><path d="m36.8196335 47.5075188s-.1300049-.0102539-.3800049-.0200195c-2.7800293 4.6599121-4.3900146 10.2299805-4.3900146 16.1999512 0 13.1799355 7.8300171 24.3598671 18.6599731 28.2600136 1.6300049.5898438 3.0200195 1.6699219 4.2300415 2.9199219 1.1300049 1.1699219 2.6099854 1.8901367 4.2299805 1.8901367s3.0999756-.7102051 4.2399902-1.8901367c1.210022-1.25 2.5999756-2.3300781 4.2299805-2.9199219 3.4100342-1.2299805 6.5300293-3.1801758 9.2000122-5.7001953-44.9699726 10.4702147-40.0199585-38.73975-40.0199585-38.73975z" fill="#fed35b"/><path d="m62.4173813 20.9111195s-17.4674835-5.2315826-29.5580902 10.4673023c-7.1654663 9.3039055-7.2347736 14.1091728-9.1488934 24.3078308 0 0 17.0229206 1.764679 28.5036716-8.6457405 5.6830254-5.1532059 8.8301583-14.2777558 10.203312-26.1293926z" fill="#4abba4"/><path d="m62.4173813 20.9111195s-18.6988945 6.2342396-32.3374748 29.2654285c0 0 20.0168457-18.3005695 32.3374748-29.2654285z" fill="#41a38e"/></svg>