<?xml version="1.0" encoding="utf-8"?>
<!-- Generator: Adobe Illustrator 17.0.0, SVG Export Plug-In . SVG Version: 6.00 Build 0)  -->
<!DOCTYPE svg PUBLIC "-//W3C//DTD SVG 1.1//EN" "http://www.w3.org/Graphics/SVG/1.1/DTD/svg11.dtd">
<svg version="1.1" id="Layer_1" xmlns="http://www.w3.org/2000/svg" xmlns:xlink="http://www.w3.org/1999/xlink" x="0px" y="0px"
	 width="576px" height="432px" viewBox="0 0 576 432" enable-background="new 0 0 576 432" xml:space="preserve">
<g>
	<path fill="#4FBAA4" d="M78.777,257.479c-1.007-0.919-1.509-2.12-1.509-3.609v-82.673c0-1.661,0.48-2.996,1.443-4.003
		c0.962-1.004,2.274-1.509,3.937-1.509c1.661,0,2.973,0.504,3.937,1.509c0.962,1.007,1.443,2.342,1.443,4.003v78.474h42.386
		c1.575,0,2.799,0.393,3.675,1.181c0.873,0.787,1.312,1.925,1.312,3.412c0,1.488-0.439,2.625-1.312,3.412
		c-0.875,0.787-2.1,1.181-3.675,1.181H82.517C81.029,258.857,79.782,258.398,78.777,257.479z"/>
	<path fill="#4FBAA4" d="M149.64,257.414c-1.007-0.962-1.509-2.23-1.509-3.806V171.59c0-1.574,0.502-2.842,1.509-3.806
		c1.004-0.961,2.339-1.443,4.002-1.443h49.079c1.575,0,2.799,0.394,3.675,1.181c0.873,0.788,1.312,1.883,1.312,3.281
		c0,1.4-0.439,2.493-1.312,3.281c-0.875,0.787-2.1,1.181-3.675,1.181H158.76v32.151h41.336c1.575,0,2.799,0.393,3.675,1.181
		c0.873,0.787,1.312,1.881,1.312,3.28c0,1.4-0.439,2.494-1.312,3.281c-0.875,0.787-2.1,1.181-3.675,1.181H158.76v33.594h43.961
		c1.575,0,2.799,0.373,3.675,1.114c0.873,0.745,1.312,1.861,1.312,3.346c0,1.402-0.439,2.494-1.312,3.281
		c-0.875,0.787-2.1,1.181-3.675,1.181h-49.079C151.979,258.857,150.644,258.378,149.64,257.414z"/>
	<path fill="#4FBAA4" d="M310.523,167.194c0.919,1.007,1.378,2.342,1.378,4.003v83.067c0,1.574-0.439,2.844-1.312,3.806
		c-0.875,0.961-2.1,1.444-3.675,1.444s-2.756-0.483-3.543-1.444c-0.788-0.962-1.181-2.232-1.181-3.806v-67.058l-28.477,54.592
		c-1.226,2.538-3.018,3.806-5.38,3.806c-2.276,0-4.068-1.268-5.38-3.806l-28.608-53.935v66.402c0,1.574-0.416,2.844-1.246,3.806
		c-0.833,0.961-2.034,1.444-3.609,1.444s-2.801-0.483-3.675-1.444c-0.875-0.962-1.312-2.232-1.312-3.806v-83.067
		c0-1.661,0.48-2.996,1.443-4.003c0.962-1.004,2.274-1.509,3.937-1.509c2.185,0,3.937,1.268,5.249,3.806l33.332,63.908
		l32.938-63.908c0.699-1.398,1.464-2.384,2.296-2.954c0.83-0.568,1.815-0.852,2.953-0.852
		C308.313,165.686,309.605,166.19,310.523,167.194z"/>
	<path fill="#4FBAA4" d="M507.955,167.194c0.874,1.007,1.313,2.342,1.313,4.003v82.805c0,1.662-0.459,2.997-1.378,4.001
		c-0.919,1.006-2.21,1.51-3.871,1.51c-1.664,0-3.107-0.742-4.33-2.232l-54.46-72.831v69.551c0,1.662-0.459,2.997-1.378,4.001
		c-0.919,1.006-2.165,1.51-3.741,1.51c-1.574,0-2.8-0.504-3.674-1.51c-0.875-1.004-1.312-2.339-1.312-4.001v-82.805
		c0-1.661,0.458-2.996,1.377-4.003c0.919-1.004,2.209-1.509,3.871-1.509c1.749,0,3.236,0.743,4.462,2.23l54.328,72.832v-69.551
		c0-1.661,0.459-2.996,1.378-4.003c0.919-1.004,2.165-1.509,3.741-1.509C505.855,165.686,507.079,166.19,507.955,167.194z"/>
</g>
<path fill="#4FBAA4" d="M367.658,151.631c-0.576-0.643-1.172-1.307-1.777-1.982c-0.304-0.338-0.611-0.678-0.919-1.02l-0.997-0.955
	c-0.668-0.64-1.336-1.28-1.993-1.91c-0.635-0.662-1.378-1.166-2.044-1.725c-0.68-0.545-1.336-1.071-1.959-1.57
	c-0.608-0.525-1.237-0.941-1.83-1.308c-2.354-1.518-3.923-2.53-3.923-2.53s1.667,0.855,4.167,2.137
	c0.635,0.31,1.311,0.668,1.972,1.133c0.678,0.441,1.393,0.906,2.133,1.387c0.729,0.498,1.54,0.943,2.247,1.545
	c0.732,0.574,1.475,1.157,2.219,1.741l1.117,0.877c0.349,0.317,0.696,0.633,1.041,0.947c0.689,0.631,1.368,1.252,2.024,1.853
	c0.653,0.607,1.223,1.253,1.798,1.836c0.25,0.264,0.734,0.765,0.734,0.765c2.044-10.299-10.373-24.803-32.896-18.294
	c0,0,7.094,24.971,31.74,20.719c-0.371-0.554-0.832-1.105-1.298-1.707C368.716,152.957,368.228,152.276,367.658,151.631z"/>
<path fill="#4FBAA4" d="M375.629,152.277c0.133-0.098,0.255-0.188,0.392-0.288c0.981-0.751,2.13-1.437,3.296-2.23
	c1.192-0.753,2.38-1.649,3.731-2.385c1.326-0.77,2.696-1.566,4.088-2.374c1.368-0.844,2.846-1.547,4.308-2.272
	c1.459-0.724,2.918-1.448,4.354-2.16c1.428-0.722,2.933-1.232,4.331-1.833c1.41-0.573,2.773-1.127,4.065-1.652
	c1.272-0.568,2.548-0.923,3.709-1.287c4.633-1.44,7.721-2.4,7.721-2.4s-2.981,1.237-7.452,3.091
	c-1.113,0.465-2.334,0.928-3.545,1.608c-1.227,0.635-2.52,1.305-3.858,1.998c-1.323,0.718-2.743,1.347-4.083,2.188
	c-1.342,0.828-2.706,1.669-4.07,2.509c-1.362,0.839-2.736,1.651-3.995,2.601c-1.28,0.91-2.54,1.806-3.759,2.672
	c-1.241,0.831-2.314,1.809-3.397,2.641c-1.054,0.869-2.101,1.628-2.973,2.436c-0.306,0.272-0.59,0.524-0.878,0.779
	c39.111,10.232,55.168-26.182,55.168-26.182C385.373,114.825,374.133,141.689,375.629,152.277z"/>
<circle fill="#FDD977" cx="373.782" cy="210.43" r="52.07"/>
<g>
	<path fill="#FDD977" d="M128.097,314.748c-2.536-1.51-4.49-3.68-5.862-6.513c-1.373-2.83-2.058-6.173-2.058-10.028
		c0-3.821,0.685-7.146,2.058-9.977c1.372-2.831,3.325-5.003,5.862-6.513c2.535-1.512,5.54-2.268,9.013-2.268
		c2.327,0,4.524,0.374,6.591,1.121c2.066,0.748,3.863,1.816,5.392,3.205c0.555,0.52,0.833,1.128,0.833,1.822
		c0,0.487-0.139,0.913-0.417,1.277c-0.279,0.365-0.608,0.546-0.989,0.546c-0.418,0-0.921-0.189-1.511-0.573
		c-1.772-1.389-3.379-2.362-4.819-2.918c-1.442-0.554-3.1-0.833-4.976-0.833c-4.029,0-7.13,1.312-9.3,3.935
		c-2.171,2.622-3.256,6.347-3.256,11.175c0,4.863,1.085,8.605,3.256,11.227c2.17,2.623,5.27,3.935,9.3,3.935
		c1.841,0,3.491-0.278,4.95-0.833s3.074-1.529,4.846-2.918c0.59-0.382,1.093-0.573,1.511-0.573c0.382,0,0.711,0.174,0.989,0.52
		c0.278,0.348,0.417,0.782,0.417,1.304c0,0.695-0.279,1.302-0.833,1.822c-1.529,1.391-3.326,2.459-5.392,3.205
		c-2.067,0.747-4.264,1.121-6.591,1.121C133.637,317.016,130.632,316.26,128.097,314.748z"/>
	<path fill="#FDD977" d="M170.429,316.052c-0.4-0.365-0.599-0.843-0.599-1.434v-32.823c0-0.66,0.19-1.189,0.573-1.589
		c0.382-0.399,0.903-0.599,1.563-0.599c0.66,0,1.18,0.2,1.563,0.599c0.382,0.4,0.574,0.93,0.574,1.589v31.156h16.828
		c0.626,0,1.111,0.157,1.459,0.469c0.347,0.314,0.521,0.765,0.521,1.355c0,0.591-0.174,1.041-0.521,1.355
		c-0.348,0.312-0.833,0.469-1.459,0.469h-19.017C171.323,316.598,170.827,316.416,170.429,316.052z"/>
	<path fill="#FDD977" d="M211.587,316.025c-0.4-0.382-0.599-0.886-0.599-1.512v-32.562c0-0.625,0.199-1.128,0.599-1.512
		c0.399-0.382,0.929-0.573,1.589-0.573h19.486c0.625,0,1.111,0.157,1.459,0.469c0.346,0.314,0.521,0.748,0.521,1.302
		c0,0.557-0.175,0.99-0.521,1.302c-0.348,0.314-0.834,0.47-1.459,0.47h-17.454v12.765h16.411c0.626,0,1.111,0.155,1.459,0.469
		c0.347,0.312,0.521,0.747,0.521,1.302s-0.174,0.99-0.521,1.302c-0.348,0.312-0.833,0.469-1.459,0.469h-16.411v13.337h17.454
		c0.625,0,1.111,0.149,1.459,0.444c0.346,0.295,0.521,0.737,0.521,1.329c0,0.556-0.175,0.989-0.521,1.302
		c-0.348,0.312-0.834,0.469-1.459,0.469h-19.486C212.516,316.598,211.986,316.407,211.587,316.025z"/>
	<path fill="#FDD977" d="M285.44,315.035c0,0.522-0.2,0.956-0.599,1.302c-0.4,0.348-0.878,0.522-1.433,0.522
		c-0.868,0-1.477-0.418-1.824-1.251l-3.699-8.441h-19.642l-3.752,8.441c-0.348,0.833-0.955,1.251-1.824,1.251
		c-0.556,0-1.041-0.183-1.458-0.548c-0.418-0.365-0.626-0.807-0.626-1.329c0-0.276,0.069-0.554,0.208-0.833l14.901-33.137
		c0.209-0.486,0.521-0.851,0.938-1.093c0.417-0.244,0.868-0.365,1.355-0.365c0.521,0,0.989,0.13,1.407,0.39
		c0.417,0.261,0.729,0.618,0.937,1.068l14.901,33.137C285.37,314.428,285.44,314.723,285.44,315.035z M259.807,303.625h16.515
		l-8.284-18.705L259.807,303.625z"/>
	<path fill="#FDD977" d="M333.425,280.205c0.346,0.4,0.52,0.93,0.52,1.589v32.876c0,0.66-0.182,1.19-0.546,1.589
		s-0.879,0.599-1.538,0.599c-0.66,0-1.232-0.295-1.718-0.886l-21.622-28.916v27.614c0,0.66-0.182,1.19-0.547,1.589
		s-0.86,0.599-1.485,0.599c-0.626,0-1.112-0.2-1.459-0.599c-0.348-0.399-0.521-0.93-0.521-1.589v-32.876
		c0-0.66,0.182-1.189,0.547-1.589c0.365-0.399,0.876-0.599,1.537-0.599c0.695,0,1.284,0.296,1.772,0.886l21.568,28.916v-27.614
		c0-0.66,0.183-1.189,0.548-1.589c0.365-0.399,0.86-0.599,1.485-0.599C332.59,279.606,333.077,279.806,333.425,280.205z"/>
	<path fill="#FDD977" d="M356.609,316.26c-0.383-0.399-0.574-0.93-0.574-1.589v-32.876c0-0.66,0.191-1.189,0.574-1.589
		c0.382-0.399,0.902-0.599,1.563-0.599c0.658,0,1.18,0.2,1.563,0.599c0.382,0.4,0.573,0.93,0.573,1.589v32.876
		c0,0.66-0.191,1.19-0.573,1.589c-0.383,0.399-0.905,0.599-1.563,0.599C357.511,316.859,356.991,316.659,356.609,316.26z"/>
	<path fill="#FDD977" d="M411.314,280.205c0.348,0.4,0.522,0.93,0.522,1.589v32.876c0,0.66-0.183,1.19-0.548,1.589
		c-0.363,0.399-0.877,0.599-1.537,0.599s-1.232-0.295-1.718-0.886l-21.623-28.916v27.614c0,0.66-0.182,1.19-0.546,1.589
		c-0.365,0.399-0.86,0.599-1.485,0.599c-0.625,0-1.113-0.2-1.459-0.599c-0.348-0.399-0.522-0.93-0.522-1.589v-32.876
		c0-0.66,0.183-1.189,0.548-1.589c0.365-0.399,0.877-0.599,1.537-0.599c0.694,0,1.285,0.296,1.771,0.886l21.57,28.916v-27.614
		c0-0.66,0.183-1.189,0.548-1.589c0.365-0.399,0.86-0.599,1.484-0.599C410.481,279.606,410.967,279.806,411.314,280.205z"/>
	<path fill="#FDD977" d="M462.502,297.946c0.329,0.312,0.495,0.747,0.495,1.302v12.973c0,0.833-0.13,1.459-0.391,1.877
		c-0.261,0.416-0.739,0.747-1.433,0.99c-1.389,0.59-3.073,1.059-5.054,1.406c-1.979,0.346-3.959,0.522-5.94,0.522
		c-3.646,0-6.791-0.747-9.429-2.241c-2.64-1.493-4.664-3.648-6.07-6.46c-1.406-2.814-2.109-6.182-2.109-10.107
		c0-3.855,0.694-7.191,2.083-10.004c1.389-2.814,3.387-4.976,5.993-6.486c2.604-1.512,5.661-2.268,9.168-2.268
		c2.432,0,4.689,0.374,6.773,1.121c2.085,0.748,3.838,1.816,5.262,3.205c0.591,0.59,0.886,1.198,0.886,1.822
		c0,0.487-0.14,0.913-0.416,1.277c-0.279,0.365-0.625,0.546-1.043,0.546c-0.416,0-0.903-0.208-1.459-0.626
		c-1.805-1.388-3.438-2.351-4.897-2.892c-1.459-0.537-3.145-0.807-5.054-0.807c-4.133,0-7.303,1.302-9.508,3.908
		c-2.206,2.604-3.309,6.339-3.309,11.202c0,4.967,1.121,8.745,3.362,11.332c2.24,2.587,5.53,3.88,9.873,3.88
		c3.23,0,6.164-0.486,8.804-1.457v-11.151h-7.605c-0.591,0-1.06-0.157-1.408-0.469s-0.52-0.711-0.52-1.198
		c0-0.522,0.172-0.93,0.52-1.225c0.348-0.295,0.816-0.442,1.408-0.442h9.743C461.746,297.477,462.172,297.633,462.502,297.946z"/>
</g>
</svg>
